<svg width="68" height="13" viewBox="0 0 68 13" fill="none" xmlns="http://www.w3.org/2000/svg">
<path fill-rule="evenodd" clip-rule="evenodd" d="M6.42442 9.55312L3.31032 11.1903L3.90506 7.7227L1.3857 5.26693L4.86737 4.76101L6.42442 1.60608L7.98148 4.76101L11.4631 5.26693L8.94379 7.7227L9.53853 11.1903L6.42442 9.55312Z" fill="#0772BF"/>
<path fill-rule="evenodd" clip-rule="evenodd" d="M19.4244 9.55312L16.3103 11.1903L16.9051 7.7227L14.3857 5.26693L17.8674 4.76101L19.4244 1.60608L20.9815 4.76101L24.4631 5.26693L21.9438 7.7227L22.5385 11.1903L19.4244 9.55312Z" fill="#0772BF"/>
<path fill-rule="evenodd" clip-rule="evenodd" d="M33.4244 9.55312L30.3103 11.1903L30.9051 7.7227L28.3857 5.26693L31.8674 4.76101L33.4244 1.60608L34.9815 4.76101L38.4631 5.26693L35.9438 7.7227L36.5385 11.1903L33.4244 9.55312Z" fill="#0772BF"/>
<path fill-rule="evenodd" clip-rule="evenodd" d="M47.4244 9.55312L44.3103 11.1903L44.9051 7.7227L42.3857 5.26693L45.8674 4.76101L47.4244 1.60608L48.9815 4.76101L52.4631 5.26693L49.9438 7.7227L50.5385 11.1903L47.4244 9.55312Z" fill="#0772BF"/>
<g opacity="0.3">
<path fill-rule="evenodd" clip-rule="evenodd" d="M61.4244 9.55312L58.3103 11.1903L58.9051 7.7227L56.3857 5.26693L59.8674 4.76101L61.4244 1.60608L62.9815 4.76101L66.4631 5.26693L63.9438 7.7227L64.5385 11.1903L61.4244 9.55312Z" fill="#454545"/>
</g>
</svg>
